<svg id="Layer_1" data-name="Layer 1" xmlns="http://www.w3.org/2000/svg" viewBox="0 0 120 120"><defs><style>.cls-1{fill:#fff;}.cls-2{fill:#949290;}</style></defs><title>Artboard 1</title><path class="cls-1" d="M60,120a60,60,0,1,1,60-60,60,60,0,0,1-60,60"/><path class="cls-2" d="M60,34.72c8.23,0,9.21,0,12.46.18A17.07,17.07,0,0,1,78.19,36,10.21,10.21,0,0,1,84,41.81a17.07,17.07,0,0,1,1.06,5.73c.15,3.25.18,4.23.18,12.46s0,9.21-.18,12.46A17.07,17.07,0,0,1,84,78.19,10.21,10.21,0,0,1,78.19,84a17.06,17.06,0,0,1-5.73,1.06c-3.25.15-4.23.18-12.46.18s-9.21,0-12.46-.18A17.06,17.06,0,0,1,41.81,84,10.21,10.21,0,0,1,36,78.19a17.07,17.07,0,0,1-1.06-5.73c-.15-3.25-.18-4.23-.18-12.46s0-9.21.18-12.46A17.07,17.07,0,0,1,36,41.81,10.21,10.21,0,0,1,41.81,36a17.07,17.07,0,0,1,5.73-1.06c3.25-.15,4.23-.18,12.46-.18m0-5.56c-8.38,0-9.43,0-12.71.19a22.64,22.64,0,0,0-7.49,1.43,15.77,15.77,0,0,0-9,9,22.63,22.63,0,0,0-1.43,7.49c-.15,3.29-.19,4.34-.19,12.71s0,9.43.19,12.71a22.63,22.63,0,0,0,1.43,7.49,15.77,15.77,0,0,0,9,9,22.64,22.64,0,0,0,7.49,1.43c3.29.15,4.34.19,12.71.19s9.43,0,12.71-.19a22.64,22.64,0,0,0,7.49-1.43,15.77,15.77,0,0,0,9-9,22.63,22.63,0,0,0,1.43-7.49c.15-3.29.19-4.34.19-12.71s0-9.43-.19-12.71a22.63,22.63,0,0,0-1.43-7.49,15.77,15.77,0,0,0-9-9,22.64,22.64,0,0,0-7.49-1.43c-3.29-.15-4.34-.19-12.71-.19"/><path class="cls-2" d="M60,44.16A15.84,15.84,0,1,0,75.84,60,15.84,15.84,0,0,0,60,44.16m0,26.12A10.28,10.28,0,1,1,70.28,60,10.28,10.28,0,0,1,60,70.28"/><path class="cls-2" d="M80.16,43.54a3.7,3.7,0,1,1-3.7-3.7,3.7,3.7,0,0,1,3.7,3.7"/></svg>